<svg width="211" height="52" viewBox="0 0 211 52" fill="none" xmlns="http://www.w3.org/2000/svg">
<g id="Group">
<g id="type">
<path id="type &#60;PathItem&#62;" d="M73.2013 41.4206V23.3268H65.8467V17.6506H86.8748V23.3037H79.5201V41.3976H73.2013V41.4206Z" fill="#0A1F59"/>
<path id="type &#60;CompoundPathItem&#62;" d="M93.4009 29.4868C93.4009 22.2792 98.8622 17.1497 105.779 17.1497C112.743 17.1497 118.175 22.2791 118.175 29.4868C118.175 36.7 112.72 41.8986 105.779 41.8986C98.8622 41.8986 93.4009 36.7 93.4009 29.4868ZM111.655 29.4868C111.655 25.7563 109.549 22.734 105.779 22.734C102.004 22.734 99.898 25.7333 99.898 29.4868C99.898 33.2228 102.004 36.3143 105.779 36.3143C109.549 36.3143 111.655 33.2459 111.655 29.4868Z" fill="#0A1F59"/>
<path id="type &#60;CompoundPathItem&#62;_2" d="M126.992 41.4206V17.6506H136.827C143.301 17.6506 147.03 20.5347 147.03 25.595C147.03 28.6404 145.2 31.1618 141.937 32.5091L147.813 41.4207H140.297L135.388 33.5166H133.31V41.4207L126.992 41.4206ZM133.31 28.3408H136.545C139.347 28.3408 140.665 27.4717 140.665 25.5949C140.665 23.7181 139.37 22.8259 136.545 22.8259H133.31V28.3408Z" fill="#0A1F59"/>
<path id="type &#60;CompoundPathItem&#62;_3" d="M154.545 29.4868C154.545 22.2792 160.007 17.1497 166.924 17.1497C173.887 17.1497 179.326 22.2791 179.326 29.4868C179.326 36.7 173.864 41.8986 166.924 41.8986C159.984 41.8986 154.545 36.7 154.545 29.4868ZM172.8 29.4868C172.8 25.7563 170.693 22.734 166.924 22.734C163.154 22.734 161.048 25.7333 161.048 29.4868C161.048 33.2228 163.154 36.3143 166.924 36.3143C170.693 36.3143 172.8 33.2459 172.8 29.4868Z" fill="#0A1F59"/>
<path id="type &#60;PathItem&#62;_2" d="M193.229 17.6506H185.875L191.52 27.7943C191.768 28.2488 191.894 28.76 191.885 29.2777C191.876 29.7955 191.732 30.302 191.468 30.7475L184.994 41.3976H192.441L197.856 31.7087C198.258 30.9954 198.477 30.1933 198.493 29.3744C198.51 28.5556 198.322 27.7455 197.948 27.0169L193.229 17.6506Z" fill="#0A1F59"/>
<path id="type &#60;PathItem&#62;_3" d="M202.759 17.6506H210.12L204.474 27.7942C204.224 28.2477 204.096 28.7589 204.104 29.2769C204.113 29.795 204.256 30.3019 204.52 30.7474L211 41.3976H203.548L198.132 31.7087C197.733 30.9944 197.516 30.1926 197.499 29.3743C197.483 28.556 197.669 27.7463 198.04 27.0169L202.759 17.6506Z" fill="#0A1F59"/>
</g>
<g id="logoMark">
<path id="logoMark &#60;PathItem&#62;" d="M30.535 18.0189C29.6624 18.5595 28.9418 19.3136 28.4414 20.2101C27.9409 21.1066 27.6771 22.1159 27.6748 23.1427L25.8161 38.0127C25.8019 38.1248 25.7473 38.2279 25.6626 38.3027C25.5778 38.3774 25.4687 38.4186 25.3557 38.4186C25.2427 38.4186 25.1336 38.3774 25.0489 38.3027C24.9641 38.2279 24.9096 38.1248 24.8954 38.0127L23.0366 23.1542C23.0371 22.1269 22.7745 21.1166 22.2738 20.2196C21.773 19.3226 21.051 18.5689 20.1764 18.0304L0 5.53833L1.20849 17.8694L10.9514 23.914C11.6242 24.3277 12.1799 24.9067 12.5657 25.5959C12.9515 26.2851 13.1545 27.0617 13.1555 27.8516L15.3135 49.9236C15.3577 50.372 15.5673 50.7879 15.9014 51.0902C16.2355 51.3924 16.6701 51.5594 17.1206 51.5584H33.6139C34.0637 51.5573 34.4972 51.3896 34.8308 51.0877C35.1645 50.7859 35.3746 50.3712 35.4209 49.9236L37.5789 27.8516C37.5771 27.0612 37.779 26.2836 38.165 25.5939C38.5511 24.9042 39.1083 24.3256 39.7829 23.914L49.5259 17.8694L50.7343 5.53833L30.535 18.0189Z" fill="url(#paint0_linear_4393_7359)"/>
<path id="logoMark &#60;CompoundPathItem&#62;" fill-rule="evenodd" clip-rule="evenodd" d="M7.84957 0L0 5.53827L8.93724 11.0589L7.84957 0ZM1.54802 21.3521L9.48968 26.28C9.8034 26.4724 10.0678 26.7356 10.2616 27.0485C10.4555 27.3614 10.5735 27.7154 10.6061 28.0821L11.4751 36.913L3.5277 31.962C3.21503 31.7685 2.95149 31.505 2.75777 31.1924C2.56405 30.8798 2.44543 30.5265 2.41124 30.1602L1.54802 21.3521ZM42.8561 0L41.7742 11.0589L50.7114 5.53827L42.8561 0ZM49.169 21.3521L41.2215 26.28C40.9078 26.4724 40.6435 26.7356 40.4497 27.0485C40.2558 27.3615 40.1378 27.7154 40.1051 28.0821L39.2362 36.913L47.1836 31.962C47.4963 31.7685 47.7598 31.5051 47.9535 31.1924C48.1472 30.8798 48.2658 30.5265 48.3 30.1602L49.169 21.3521Z" fill="url(#paint1_linear_4393_7359)"/>
</g>
</g>
<defs>
<linearGradient id="paint0_linear_4393_7359" x1="12.4432" y1="47.3589" x2="26.6666" y2="6.2236" gradientUnits="userSpaceOnUse">
<stop stop-color="#6A38FF"/>
<stop offset="1" stop-color="#BB69FF"/>
</linearGradient>
<linearGradient id="paint1_linear_4393_7359" x1="26.0376" y1="-1.60642" x2="22.5306" y2="35.1107" gradientUnits="userSpaceOnUse">
<stop stop-color="#8813BA"/>
<stop offset="1" stop-color="#8D40F7"/>
</linearGradient>
</defs>
</svg>
