 <svg class="ladder" preserveAspectRatio="none" width="265" height="40"  viewBox="0 0 153 40" fill="none"
            xmlns="http://www.w3.org/2000/svg">
            <path
                d="M5.10021 7.87953C4.53627 5.37826 6.43821 2.99976 9.00226 2.99976H143.998C146.562 2.99976 148.464 5.37826 147.9 7.87953L142.94 29.8795C142.528 31.7039 140.908 32.9998 139.038 32.9998H13.9624C12.0923 32.9998 10.4717 31.7039 10.0604 29.8795L5.10021 7.87953Z"
                fill="#2C2C44"></path>
            <path
                d="M5.10021 7.87953C4.53627 5.37826 6.43821 2.99976 9.00226 2.99976H143.998C146.562 2.99976 148.464 5.37826 147.9 7.87953L142.94 29.8795C142.528 31.7039 140.908 32.9998 139.038 32.9998H13.9624C12.0923 32.9998 10.4717 31.7039 10.0604 29.8795L5.10021 7.87953Z"
                fill="url(#paint0_linear_1262_217)" fill-opacity="0.15"></path>
            <path
                d="M5.58797 7.76956C5.09451 5.58094 6.75871 3.49976 9.00226 3.49976H143.998C146.241 3.49976 147.905 5.58094 147.412 7.76956L142.452 29.7696C142.092 31.3659 140.674 32.4998 139.038 32.4998H13.9624C12.326 32.4998 10.9081 31.3659 10.5482 29.7696L5.58797 7.76956Z"
                stroke="#9C9CC2" stroke-opacity="0.3"></path>
        </svg>