<svg width="64" height="64" viewBox="0 0 64 64" fill="none" xmlns="http://www.w3.org/2000/svg">
<path d="M61.5006 31.9463H60.0645" stroke="#BB69FF" stroke-width="3" stroke-miterlimit="10" stroke-linecap="round" stroke-linejoin="round"/>
<path d="M60.4473 19.6167L59.4316 20.6322" stroke="#BB69FF" stroke-width="3" stroke-miterlimit="10" stroke-linecap="round" stroke-linejoin="round"/>
<path d="M60.4473 44.2753L59.4316 43.2598" stroke="#BB69FF" stroke-width="3" stroke-miterlimit="10" stroke-linecap="round" stroke-linejoin="round"/>
<path d="M13.3139 39.7967H10.0611C5.88525 39.7967 2.5 36.4115 2.5 32.2356V31.6559C2.5 27.48 5.88525 24.0947 10.0611 24.0947H13.3138L13.3139 39.7967Z" stroke="#0A1F59" stroke-width="3" stroke-miterlimit="10" stroke-linecap="round" stroke-linejoin="round"/>
<path d="M42.216 49.7969L13.3145 39.7969V24.0947L42.216 14.0947V49.7969Z" stroke="#0A1F59" stroke-width="3" stroke-miterlimit="10" stroke-linecap="round" stroke-linejoin="round"/>
<path d="M22.9288 43.321V43.8476C22.9288 48.0515 19.521 51.4594 15.3171 51.4594H13.3145V35.1826" stroke="#0A1F59" stroke-width="3" stroke-miterlimit="10" stroke-linecap="round" stroke-linejoin="round"/>
<path d="M32.3105 28.6001V35.2916" stroke="#BB69FF" stroke-width="3" stroke-miterlimit="10" stroke-linecap="round" stroke-linejoin="round"/>
<path d="M51.1882 34.7844V16.8253C51.1882 12.6073 47.7371 9.20494 43.5195 9.26494L42.2148 9.28344V54.7356L43.7346 54.7139C47.8245 54.6558 51.1178 51.3583 51.1871 47.2844" stroke="#0A1F59" stroke-width="3" stroke-miterlimit="10" stroke-linecap="round" stroke-linejoin="round"/>
</svg>
