<svg width="64" height="64" viewBox="0 0 64 64" fill="none" xmlns="http://www.w3.org/2000/svg">
<g id="talk 1">
<g id="Group">
<g id="Group_2">
<g id="Group_3">
<g id="Group_4">
<g id="Group_5">
<g id="Group_6">
<g id="Group_7">
<path id="Vector" d="M16.4199 50.9175C20.4466 50.9175 23.7109 47.6598 23.7109 43.6411C23.7109 39.6225 20.4466 36.3647 16.4199 36.3647C12.3932 36.3647 9.12891 39.6225 9.12891 43.6411C9.12891 47.6598 12.3932 50.9175 16.4199 50.9175Z" stroke="white" stroke-width="3" stroke-miterlimit="10" stroke-linecap="round" stroke-linejoin="round"/>
</g>
<path id="Vector_2" d="M26.4137 61.4995H6.42578V60.8954C6.42578 55.3847 10.893 50.9175 16.4037 50.9175H16.4357C21.9463 50.9175 26.4135 55.3847 26.4135 60.8954V61.4995H26.4137Z" stroke="white" stroke-width="3" stroke-miterlimit="10" stroke-linecap="round" stroke-linejoin="round"/>
</g>
</g>
</g>
<g id="Group_8">
<g id="Group_9">
<g id="Group_10">
<g id="Group_11">
<path id="Vector_3" d="M47.5801 50.9175C51.6068 50.9175 54.8711 47.6598 54.8711 43.6411C54.8711 39.6225 51.6068 36.3647 47.5801 36.3647C43.5534 36.3647 40.2891 39.6225 40.2891 43.6411C40.2891 47.6598 43.5534 50.9175 47.5801 50.9175Z" stroke="white" stroke-width="3" stroke-miterlimit="10" stroke-linecap="round" stroke-linejoin="round"/>
</g>
<path id="Vector_4" d="M57.5738 61.4995H37.5859V60.8954C37.5859 55.3847 42.0532 50.9175 47.5638 50.9175H47.5958C53.1064 50.9175 57.5737 55.3847 57.5737 60.8954V61.4995H57.5738Z" stroke="white" stroke-width="3" stroke-miterlimit="10" stroke-linecap="round" stroke-linejoin="round"/>
</g>
</g>
</g>
</g>
<path id="Vector_5" d="M18.2129 13.8003H45.7874" stroke="#BB69FF" stroke-width="3" stroke-miterlimit="10" stroke-linecap="round" stroke-linejoin="round"/>
</g>
<path id="Vector_6" d="M51.0717 25.9772H51.1952C55.7236 25.9772 59.3945 22.3195 59.3945 17.8074V10.6699C59.3945 6.15775 55.7236 2.5 51.1952 2.5H12.8047C8.27634 2.5 4.60547 6.15775 4.60547 10.6699V17.8072C4.60547 22.3194 8.27634 25.9771 12.8047 25.9771H25.426L29.5385 29.741C30.9297 31.0142 33.0702 31.0142 34.4616 29.741L38.5718 25.9792" stroke="#BB69FF" stroke-width="3" stroke-miterlimit="10" stroke-linecap="round" stroke-linejoin="round"/>
</g>
</g>
</svg>
