<svg width="64" height="64" viewBox="0 0 64 64" fill="none" xmlns="http://www.w3.org/2000/svg">
<g id="technology (1) 1">
<g id="Group">
<g id="Group_2">
<g id="Group_3">
<g id="Group_4">
<path id="Vector" d="M41.9844 32H56.402" stroke="white" stroke-width="3" stroke-miterlimit="10" stroke-linecap="round" stroke-linejoin="round"/>
<g id="Group_5">
<path id="Vector_2" d="M41.9844 17.4591H54.6846L57.8407 11.2861" stroke="white" stroke-width="3" stroke-miterlimit="10" stroke-linecap="round" stroke-linejoin="round"/>
</g>
</g>
</g>
<path id="Vector_3" d="M41.5669 21.4937C39.8902 20.6217 38.1044 20.1279 36.0767 20.1279C29.423 20.1279 24.0293 25.4431 24.0293 31.9997C24.0293 38.5563 29.423 43.8714 36.0767 43.8714C38.1044 43.8714 39.8902 43.3778 41.5669 42.5057" fill="#BB69FF"/>
</g>
<path id="Vector_4" d="M41.6917 59.0407V59.561C41.0454 60.731 39.7899 61.5 38.3809 61.5H33.7718C31.9776 61.5 30.4321 60.2529 30.0769 58.5186L29.7032 56.693C27.2721 56.0848 24.9786 55.1366 22.8774 53.903L21.3019 54.9346C19.8072 55.9134 17.8201 55.7175 16.5513 54.4665L13.2922 51.2528C12.0234 50.0018 11.8249 48.0422 12.8174 46.5684L13.8637 45.0149C12.6126 42.9431 11.6511 40.6815 11.0342 38.2842L9.18268 37.9156C7.42393 37.5655 6.15918 36.0415 6.15918 34.2723V29.7275C6.15918 27.9583 7.42393 26.4343 9.18268 26.0841L11.0342 25.7156C11.6509 23.3184 12.6126 21.0568 13.8637 18.985L12.8174 17.4315C11.8249 15.9576 12.0234 13.9982 13.2922 12.7471L16.5513 9.53337C17.8201 8.28237 19.8072 8.0865 21.3019 9.06525L22.8774 10.0969C24.9784 8.86313 27.2721 7.915 29.7032 7.30688L30.0769 5.48125C30.4321 3.74712 31.9777 2.5 33.7718 2.5H38.3809C39.7898 2.5 41.0454 3.269 41.6917 4.439V46.5406H54.6839L57.8401 52.7136" stroke="white" stroke-width="3" stroke-miterlimit="10" stroke-linecap="round" stroke-linejoin="round"/>
</g>
</g>
</svg>
