<?xml version="1.0"?>
<svg width="512" height="512" xmlns="http://www.w3.org/2000/svg" xmlns:svg="http://www.w3.org/2000/svg" xmlns:xlink="http://www.w3.org/1999/xlink" version="1.1" xml:space="preserve">
 <!-- Created with SVG-edit - https://github.com/SVG-Edit/svgedit-->
 <defs>
  <symbol height="52" id="svg_15" viewBox="0 0 52 52" width="52" xmlns="http://www.w3.org/2000/svg">
   <g id="svg_11">
    <g id="svg_12">
     <path d="m30.54,18.02c-0.88,0.54 -1.6,1.29 -2.1,2.19c-0.5,0.9 -0.76,1.91 -0.77,2.93l-1.85,14.87c-0.02,0.11 -0.07,0.22 -0.16,0.29c-0.08,0.08 -0.19,0.12 -0.3,0.12c-0.12,0 -0.23,-0.04 -0.31,-0.12c-0.09,-0.07 -0.14,-0.18 -0.15,-0.29l-1.86,-14.86c0,-1.02 -0.27,-2.03 -0.77,-2.93c-0.5,-0.9 -1.22,-1.65 -2.09,-2.19l-20.18,-12.49l1.21,12.33l9.74,6.04c0.67,0.42 1.23,1 1.62,1.69c0.38,0.69 0.58,1.46 0.59,2.25l2.15,22.07c0.05,0.45 0.26,0.87 0.59,1.17c0.34,0.3 0.77,0.47 1.22,0.47l16.49,0c0.45,0 0.89,-0.17 1.22,-0.47c0.33,-0.3 0.54,-0.72 0.59,-1.17l2.16,-22.07c0,-0.79 0.2,-1.57 0.58,-2.26c0.39,-0.69 0.95,-1.26 1.62,-1.68l9.75,-6.04l1.2,-12.33l-20.19,12.48z" fill="url(#svg_10)" id="svg_14"/>
     <path clip-rule="evenodd" d="m7.85,0l-7.85,5.54l8.94,5.52l-1.09,-11.06zm-6.3,21.35l7.94,4.93c0.31,0.19 0.58,0.46 0.77,0.77c0.2,0.31 0.31,0.67 0.35,1.03l0.87,8.83l-7.95,-4.95c-0.31,-0.19 -0.58,-0.46 -0.77,-0.77c-0.2,-0.31 -0.31,-0.66 -0.35,-1.03l-0.86,-8.81zm41.31,-21.35l-1.09,11.06l8.94,-5.52l-7.85,-5.54zm6.31,21.35l-7.95,4.93c-0.31,0.19 -0.58,0.46 -0.77,0.77c-0.19,0.31 -0.31,0.67 -0.34,1.03l-0.87,8.83l7.94,-4.95c0.32,-0.19 0.58,-0.45 0.77,-0.77c0.2,-0.31 0.32,-0.66 0.35,-1.03l0.87,-8.81z" fill="url(#svg_9)" fill-rule="evenodd" id="svg_13"/>
    </g>
   </g>
   <defs>
    <linearGradient gradientUnits="userSpaceOnUse" id="svg_10" x1="12.44" x2="26.67" y1="47.36" y2="6.22">
     <stop stop-color="#6A38FF"/>
     <stop offset="1" stop-color="#BB69FF"/>
    </linearGradient>
    <linearGradient gradientUnits="userSpaceOnUse" id="svg_9" x1="26.04" x2="22.53" y1="-1.61" y2="35.11">
     <stop stop-color="#8813BA"/>
     <stop offset="1" stop-color="#8D40F7"/>
    </linearGradient>
   </defs>
  </symbol>
  <symbol height="71.34" id="svg_18" viewBox="0 0 243.896 71.339" width="243.9" xmlns="http://www.w3.org/2000/svg">
   <g fill="#ffffff" fill-rule="evenodd" font-size="9pt" id="svg_17" stroke="#ffffff" stroke-linecap="round" stroke-width="0.35mm">
    <path d="m214.75,40.33l0,30.23l-11.43,0l0,-69.73l11.43,0l0,29.15l17.72,0l0,-29.15l11.43,0l0,69.73l-11.43,0l0,-30.23l-17.72,0zm-18.22,-13.72l-11.42,0a147.9,147.9 0 0 0 0.06,-2.09q0.04,-1.86 0.06,-4.13a215.41,215.41 0 0 0 0,-1.07q0.01,-2.08 -0.03,-3.77a91.97,91.97 0 0 0 -0.04,-1.34a4.09,4.09 0 0 0 -0.37,-1.67q-0.42,-0.9 -1.33,-1.53a5.18,5.18 0 0 0 -0.4,-0.24a6.95,6.95 0 0 0 -1.51,-0.61q-1.94,-0.54 -5.04,-0.54q-3.62,0 -5.6,0.82a5.64,5.64 0 0 0 -0.67,0.33q-1.85,1.07 -2.1,3.15a5.34,5.34 0 0 0 -0.02,0.29a526.69,526.69 0 0 0 -0.21,6.77a638.76,638.76 0 0 0 -0.14,7.22a568.29,568.29 0 0 0 -0.05,7.45a571.09,571.09 0 0 0 0.05,7.47a640.39,640.39 0 0 0 0.14,7.23a525.45,525.45 0 0 0 0.21,6.78a4.38,4.38 0 0 0 0.46,1.76q0.48,0.92 1.44,1.56a5.42,5.42 0 0 0 0.24,0.15a6.72,6.72 0 0 0 1.52,0.63q1.56,0.45 3.87,0.52a28.84,28.84 0 0 0 0.91,0.02a30.56,30.56 0 0 0 2.34,-0.08q2.27,-0.18 3.73,-0.72a6.35,6.35 0 0 0 0.82,-0.37a4.79,4.79 0 0 0 1.23,-0.94q0.93,-1.01 1.01,-2.48a5,5 0 0 0 0,-0.05a86.43,86.43 0 0 0 0.05,-1.72q0.04,-2.02 0,-4.56a360.75,360.75 0 0 0 -0.04,-2.61q-0.02,-1.02 -0.05,-1.94a179.99,179.99 0 0 0 -0.05,-1.72l11.47,0q0.15,2.39 0.17,5.18a89.87,89.87 0 0 1 0.01,0.79q0,1.61 -0.06,3.1a66.09,66.09 0 0 1 -0.07,1.33a26.47,26.47 0 0 1 -0.57,4.66q-1.15,5.22 -4.53,7.91a14.2,14.2 0 0 1 -4.08,2.2q-4.44,1.59 -11.38,1.59q-9.07,0 -13.69,-2.78a11.18,11.18 0 0 1 -1.42,-1.01q-4.52,-3.78 -4.76,-12.57q-0.2,-5.47 -0.27,-12.4a656.41,656.41 0 0 1 -0.04,-6.93a656.41,656.41 0 0 1 0.04,-6.94q0.07,-6.71 0.26,-12.09a358.59,358.59 0 0 1 0.01,-0.36a20.47,20.47 0 0 1 0.76,-5.17a14.61,14.61 0 0 1 4.07,-6.74q4.64,-4.35 14.99,-4.35a45.01,45.01 0 0 1 5.33,0.29q6.38,0.77 9.79,3.52a12.08,12.08 0 0 1 3.6,5.04q1.25,3.14 1.4,7.51a63.54,63.54 0 0 1 0.05,1.54q0.03,1.42 0.01,3.08a121.69,121.69 0 0 1 -0.01,0.48a241.89,241.89 0 0 1 -0.05,2.42q-0.03,1.1 -0.07,2.09a138.78,138.78 0 0 1 -0.03,0.64zm-95.46,19.83l0,24.12l-11.42,0l0,-69.73l18.7,0a47.11,47.11 0 0 1 5.31,0.28q5.5,0.62 8.8,2.66a11.84,11.84 0 0 1 1.1,0.77q4.71,3.71 5.1,12.26a105.88,105.88 0 0 1 0.2,2.69q0.12,2.13 0.12,3.85a45.95,45.95 0 0 1 0,0.39q-0.02,2.88 -0.32,6.79q-0.19,4.36 -1.69,7.4a12.48,12.48 0 0 1 -0.8,1.41q-2.24,3.4 -6.88,5.15l11.37,26.08l-12.2,0l-10.06,-24.12l-7.33,0zm-76.36,-35.26l0,59.38l-11.43,0l0,-59.38l-13.28,0l0,-10.35l37.94,0l0,10.35l-13.23,0zm32.34,59.89a48.93,48.93 0 0 0 5.3,0.27a57.24,57.24 0 0 0 2.01,-0.04q5.76,-0.2 9.58,-1.59a13.84,13.84 0 0 0 3.97,-2.16q4.71,-3.78 4.95,-12.57a482.16,482.16 0 0 0 0.15,-4.68a538.18,538.18 0 0 0 0.19,-14.58a576.79,576.79 0 0 0 0,-2.49a525.54,525.54 0 0 0 -0.34,-16.87a28.46,28.46 0 0 0 -0.25,-3.11q-0.33,-2.44 -1.11,-4.4a11.99,11.99 0 0 0 -3.59,-5.04a11.83,11.83 0 0 0 -1.48,-1.02q-4.79,-2.79 -14.08,-2.79a56.52,56.52 0 0 0 -1.94,0.03q-5.77,0.2 -9.61,1.61a13.94,13.94 0 0 0 -3.97,2.17a11.47,11.47 0 0 0 -2.87,3.45q-1.07,1.94 -1.6,4.46a26.05,26.05 0 0 0 -0.51,4.64a480.75,480.75 0 0 0 -0.15,4.68a540.61,540.61 0 0 0 -0.2,14.63a572.64,572.64 0 0 0 0.02,4.97a509.99,509.99 0 0 0 0.33,14.34q0.12,4.4 1.36,7.54a11.89,11.89 0 0 0 3.62,5.03q3.47,2.78 10.22,3.52zm91.44,-70.24l0,69.73l-11.43,0l0,-69.73l11.43,0zm-86.14,60.94a31,31 0 0 0 2.36,-0.08q2.27,-0.18 3.7,-0.72a6.05,6.05 0 0 0 0.83,-0.37a4.75,4.75 0 0 0 1.23,-0.96a3.8,3.8 0 0 0 0.97,-2.46a262.68,262.68 0 0 0 0.31,-6.72a331.68,331.68 0 0 0 0.17,-7.27a518.43,518.43 0 0 0 0.05,-6.71a520.97,520.97 0 0 0 -0.07,-8.4a423.12,423.12 0 0 0 -0.18,-7.27a325.76,325.76 0 0 0 -0.28,-6.65q-0.1,-2.29 -2.25,-3.44q-2.15,-1.15 -6.84,-1.15a29.86,29.86 0 0 0 -2.35,0.09q-2.87,0.22 -4.43,1.06q-2.15,1.15 -2.3,3.44a252.79,252.79 0 0 0 -0.32,6.65a328.12,328.12 0 0 0 -0.17,7.27a468.97,468.97 0 0 0 -0.04,6.05a466.75,466.75 0 0 0 0.09,9.06a607.2,607.2 0 0 0 0.19,7.27a480.25,480.25 0 0 0 0.25,6.72q0.15,2.24 2.3,3.42a7.43,7.43 0 0 0 1.58,0.61q2.01,0.56 5.2,0.56zm46,-50.59l-7.28,0l0,24.9l7.13,0q3.9,0 6.01,-0.89a5.85,5.85 0 0 0 0.73,-0.38a4.95,4.95 0 0 0 1.42,-1.25q0.73,-0.97 0.87,-2.3a5.71,5.71 0 0 0 0.01,-0.11a89.21,89.21 0 0 0 0.31,-7.51a88.35,88.35 0 0 0 -0.31,-7.48q-0.2,-2.44 -2.3,-3.71a6.95,6.95 0 0 0 -1.61,-0.69q-1.65,-0.49 -4.1,-0.56a29.29,29.29 0 0 0 -0.88,-0.02z"/>
   </g>
  </symbol>
 </defs>
 <g class="layer">
  <title>Layer 1</title>
  <use id="svg_16" transform="matrix(1 0 0 1 0 0) matrix(2.1927 0 0 1.96141 100.682 89.1254)" x="-14.62" xlink:href="#svg_15" y="52.22"/>
  <use fill="#020101" id="svg_19" stroke="#000000" stroke-width="7" transform="matrix(0.873689 0 0 1.00171 -11.3743 -99.2791)" x="273.17" xlink:href="#svg_18" y="311.48"/>
 </g>
</svg>