<?xml version="1.0"?>
<svg width="512" height="512" xmlns="http://www.w3.org/2000/svg" xmlns:svg="http://www.w3.org/2000/svg" xmlns:xlink="http://www.w3.org/1999/xlink" version="1.1" xml:space="preserve">
 <!-- Created with SVG-edit - https://github.com/SVG-Edit/svgedit-->
 <defs>
  <symbol height="52" id="svg_15" viewBox="0 0 52 52" width="52" xmlns="http://www.w3.org/2000/svg">
   <g id="svg_11">
    <g id="svg_12">
     <path d="m30.54,18.02c-0.88,0.54 -1.6,1.29 -2.1,2.19c-0.5,0.9 -0.76,1.91 -0.77,2.93l-1.85,14.87c-0.02,0.11 -0.07,0.22 -0.16,0.29c-0.08,0.08 -0.19,0.12 -0.3,0.12c-0.12,0 -0.23,-0.04 -0.31,-0.12c-0.09,-0.07 -0.14,-0.18 -0.15,-0.29l-1.86,-14.86c0,-1.02 -0.27,-2.03 -0.77,-2.93c-0.5,-0.9 -1.22,-1.65 -2.09,-2.19l-20.18,-12.49l1.21,12.33l9.74,6.04c0.67,0.42 1.23,1 1.62,1.69c0.38,0.69 0.58,1.46 0.59,2.25l2.15,22.07c0.05,0.45 0.26,0.87 0.59,1.17c0.34,0.3 0.77,0.47 1.22,0.47l16.49,0c0.45,0 0.89,-0.17 1.22,-0.47c0.33,-0.3 0.54,-0.72 0.59,-1.17l2.16,-22.07c0,-0.79 0.2,-1.57 0.58,-2.26c0.39,-0.69 0.95,-1.26 1.62,-1.68l9.75,-6.04l1.2,-12.33l-20.19,12.48z" fill="url(#svg_10)" id="svg_14"/>
     <path clip-rule="evenodd" d="m7.85,0l-7.85,5.54l8.94,5.52l-1.09,-11.06zm-6.3,21.35l7.94,4.93c0.31,0.19 0.58,0.46 0.77,0.77c0.2,0.31 0.31,0.67 0.35,1.03l0.87,8.83l-7.95,-4.95c-0.31,-0.19 -0.58,-0.46 -0.77,-0.77c-0.2,-0.31 -0.31,-0.66 -0.35,-1.03l-0.86,-8.81zm41.31,-21.35l-1.09,11.06l8.94,-5.52l-7.85,-5.54zm6.31,21.35l-7.95,4.93c-0.31,0.19 -0.58,0.46 -0.77,0.77c-0.19,0.31 -0.31,0.67 -0.34,1.03l-0.87,8.83l7.94,-4.95c0.32,-0.19 0.58,-0.45 0.77,-0.77c0.2,-0.31 0.32,-0.66 0.35,-1.03l0.87,-8.81z" fill="url(#svg_9)" fill-rule="evenodd" id="svg_13"/>
    </g>
   </g>
   <defs>
    <linearGradient gradientUnits="userSpaceOnUse" id="svg_10" x1="12.44" x2="26.67" y1="47.36" y2="6.22">
     <stop stop-color="#6A38FF"/>
     <stop offset="1" stop-color="#BB69FF"/>
    </linearGradient>
    <linearGradient gradientUnits="userSpaceOnUse" id="svg_9" x1="26.04" x2="22.53" y1="-1.61" y2="35.11">
     <stop stop-color="#8813BA"/>
     <stop offset="1" stop-color="#8D40F7"/>
    </linearGradient>
   </defs>
  </symbol>
  <symbol height="73.1" id="svg_24" viewBox="0 0 477.734 73.098" width="477.73" xmlns="http://www.w3.org/2000/svg">
   <g fill="#ffffff" fill-rule="evenodd" font-size="9pt" id="svg_23" stroke="#ffffff" stroke-linecap="round" stroke-width="0.55mm">
    <path d="m477.73,1.03l0,71.09l-17.04,0l0,-29.69l-25.24,0l0,29.69l-17.14,0l0,-71.09l17.14,0l0,28.22l25.24,0l0,-28.22l17.04,0zm-109.47,47.02l17.04,0a27.81,27.81 0 0 1 -1.5,8a24.35,24.35 0 0 1 -2.5,5.11a23.78,23.78 0 0 1 -8.87,8.1a28.91,28.91 0 0 1 -1.41,0.71a32.36,32.36 0 0 1 -9.49,2.76a41.43,41.43 0 0 1 -5.62,0.37a34.59,34.59 0 0 1 -9.63,-1.27a25.81,25.81 0 0 1 -12.44,-7.86q-8.06,-9.13 -8.06,-25.78l0,-3.52a50.73,50.73 0 0 1 0.8,-9.21a37.73,37.73 0 0 1 2.84,-9.08a28.9,28.9 0 0 1 5.71,-8.31a26.56,26.56 0 0 1 4.76,-3.8q6.84,-4.27 15.82,-4.27q12.94,0 20.8,6.81a25.37,25.37 0 0 1 8.06,13.45a35.22,35.22 0 0 1 0.88,5.33l-17.09,0q-0.12,-3.87 -1.26,-6.44a8.6,8.6 0 0 0 -2.01,-2.89a9.51,9.51 0 0 0 -3.31,-1.94q-1.46,-0.51 -3.26,-0.73a23.33,23.33 0 0 0 -2.81,-0.16a13.41,13.41 0 0 0 -3.81,0.51a9.56,9.56 0 0 0 -5.56,4.27q-2.61,4.2 -3.05,12.79a68.45,68.45 0 0 0 -0.08,2.5l0,5.03a72.62,72.62 0 0 0 0.18,5.28q0.4,5.37 1.66,8.78a13.96,13.96 0 0 0 1.02,2.2a9.43,9.43 0 0 0 6.42,4.54a15.89,15.89 0 0 0 3.42,0.34a20.14,20.14 0 0 0 3.42,-0.27q1.88,-0.33 3.37,-1.04a9.48,9.48 0 0 0 2.24,-1.47a8.86,8.86 0 0 0 2.34,-3.47q0.55,-1.41 0.8,-3.15a20.78,20.78 0 0 0 0.18,-2.22zm-146.73,24.07l-12.55,-25.1l-9.27,0l0,25.1l-17.14,0l0,-71.09l27.98,0a46.03,46.03 0 0 1 7.7,0.6q7.28,1.24 12.07,5.01a18.28,18.28 0 0 1 6.96,12.78a26.62,26.62 0 0 1 0.17,3.09q0,6.26 -2.14,10.72a17.4,17.4 0 0 1 -0.86,1.59a18.73,18.73 0 0 1 -4.76,5.14a26.55,26.55 0 0 1 -4.64,2.77l14.84,28.66l0,0.73l-18.36,0zm-162.11,-71.09l0,13.23l-21.33,0l0,57.86l-17.14,0l0,-57.86l-20.95,0l0,-13.23l59.42,0zm89.41,33.74l0,3.27a47.73,47.73 0 0 1 -0.97,9.8a37.44,37.44 0 0 1 -2.89,8.61a29.76,29.76 0 0 1 -6.18,8.66a27.56,27.56 0 0 1 -4.78,3.67a29.86,29.86 0 0 1 -13.67,4.23a36.52,36.52 0 0 1 -2.52,0.09a33.67,33.67 0 0 1 -9.32,-1.25a28.8,28.8 0 0 1 -6.79,-2.93a28.29,28.29 0 0 1 -10.59,-11.22a34.03,34.03 0 0 1 -0.37,-0.72a37.86,37.86 0 0 1 -3.6,-11.46a48.28,48.28 0 0 1 -0.53,-6.36l0,-4a48.36,48.36 0 0 1 0.93,-9.69a37.42,37.42 0 0 1 2.9,-8.74a29.31,29.31 0 0 1 6.75,-9.18a27.87,27.87 0 0 1 4.24,-3.15a30.07,30.07 0 0 1 13.76,-4.26a36.72,36.72 0 0 1 2.52,-0.09a32.43,32.43 0 0 1 9.92,1.47a28.76,28.76 0 0 1 6.2,2.83a28.7,28.7 0 0 1 10.49,11.22a34.65,34.65 0 0 1 0.52,1.01a38,38 0 0 1 3.53,11.71a48.61,48.61 0 0 1 0.45,6.48zm142.14,-33.74l0,71.09l-17.09,0l0,-71.09l17.09,0zm-159.57,37.3l0,-3.27a50.97,50.97 0 0 0 -0.32,-5.84q-0.73,-6.39 -3.22,-10.25a12.24,12.24 0 0 0 -3.46,-3.61q-2.46,-1.65 -5.73,-1.85a15.05,15.05 0 0 0 -0.95,-0.03a11.36,11.36 0 0 0 -10.7,6.2q-2.6,4.75 -2.92,13.13l-0.05,5.23q0,10.45 3.47,16.06a11.84,11.84 0 0 0 3.66,3.83q2.3,1.48 5.35,1.73a15.52,15.52 0 0 0 1.29,0.06a12.11,12.11 0 0 0 4.85,-0.94q3.1,-1.34 5.16,-4.58q3.5,-5.49 3.57,-15.77a61.1,61.1 0 0 0 0,-0.1zm68.31,-24.07l0,19.53l10.84,0a14.8,14.8 0 0 0 2.81,-0.25q1.6,-0.31 2.83,-1a7.31,7.31 0 0 0 1.71,-1.31q2.32,-2.42 2.45,-6.64a16.45,16.45 0 0 0 0.01,-0.52q0,-4.59 -2.49,-7.2a7.94,7.94 0 0 0 -3.54,-2.11q-1.25,-0.38 -2.75,-0.47a16.53,16.53 0 0 0 -1.03,-0.03l-10.84,0z"/>
   </g>
  </symbol>
 </defs>
 <g class="layer">
  <title>Layer 1</title>
  <use id="svg_16" transform="matrix(1 0 0 1 0 0) matrix(2.1927 0 0 1.96141 100.682 89.1254)" x="-22.07" xlink:href="#svg_15" y="38.28"/>
  <use id="svg_25" stroke-width="13" transform="matrix(0.601194 0 0 0.570346 -857.782 -33.1542)" x="1746.54" xlink:href="#svg_24" y="400.69"/>
 </g>
</svg>