<svg width="64" height="64" viewBox="0 0 64 64" fill="none" xmlns="http://www.w3.org/2000/svg">
<g id="traffic 1">
<g id="Group">
<g id="Group_2">
<g id="Group_3">
<g id="Group_4">
<path id="Vector" d="M24.5605 11.5521V11.4404" stroke="white" stroke-width="3" stroke-miterlimit="10" stroke-linecap="round" stroke-linejoin="round"/>
<path id="Vector_2" d="M17.0605 11.5521V11.4404" stroke="white" stroke-width="3" stroke-miterlimit="10" stroke-linecap="round" stroke-linejoin="round"/>
<path id="Vector_3" d="M9.56055 11.5521V11.4404" stroke="white" stroke-width="3" stroke-miterlimit="10" stroke-linecap="round" stroke-linejoin="round"/>
<path id="Vector_4" d="M2 18.6452H62M2 18.6452V56C2 58.2091 3.79086 60 6 60H58C60.2091 60 62 58.2091 62 56V18.6452M2 18.6452V9C2 6.79086 3.79086 5 6 5H58C60.2091 5 62 6.79086 62 9V18.6452" stroke="white" stroke-width="3" stroke-miterlimit="10" stroke-linecap="round" stroke-linejoin="round"/>
</g>
</g>
</g>
<g id="Group_5">
<path id="Vector_5" d="M12.25 45.0282L26.0548 31.439L39.1354 45.0282L52.0004 31.439" stroke="#BB69FF" stroke-width="3" stroke-miterlimit="10" stroke-linecap="round" stroke-linejoin="round"/>
<g id="Group_6">
<path id="Vector_6" d="M52 41.0925V31.439" stroke="#BB69FF" stroke-width="3" stroke-miterlimit="10" stroke-linecap="round" stroke-linejoin="round"/>
<path id="Vector_7" d="M52.0001 31.439H42.3467" stroke="#BB69FF" stroke-width="3" stroke-miterlimit="10" stroke-linecap="round" stroke-linejoin="round"/>
</g>
</g>
</g>
</g>
</svg>
