<!DOCTYPE svg PUBLIC "-//W3C//DTD SVG 1.1//EN" "http://www.w3.org/Graphics/SVG/1.1/DTD/svg11.dtd">

<!-- Uploaded to: SVG Repo, www.svgrepo.com, Transformed by: SVG Repo Mixer Tools -->
<svg fill="#ff1a1a" width="800px" height="800px" viewBox="0 0 24 24" xmlns="http://www.w3.org/2000/svg" stroke="#ff1a1a">

<g id="SVGRepo_bgCarrier" stroke-width="0"/>

<g id="SVGRepo_tracerCarrier" stroke-linecap="round" stroke-linejoin="round"/>

<g id="SVGRepo_iconCarrier">

<path stroke-width="0" d="M22,12H16.333V10a1,1,0,0,0-1-1H8.667a1,1,0,0,0-1,1v5H2a1,1,0,0,0-1,1v6a1,1,0,0,0,1,1H22a1,1,0,0,0,1-1V13A1,1,0,0,0,22,12ZM7.667,21H3V17H7.667Zm6.666-8v8H9.667V11h4.666ZM21,21H16.333V14H21ZM15,3.292,13.333,4.667,13.854,7,12,5.667,10.146,7l.521-2.333L9,3.292,11,3l1-2,1,2Z"/>

</g>

</svg>